<svg width="131" height="21" viewBox="0 0 131 21" fill="none" xmlns="http://www.w3.org/2000/svg">
<path d="M10.0388 20.0774C15.5831 20.0774 20.0776 15.5829 20.0776 10.0387C20.0776 4.49448 15.5831 0 10.0388 0C4.49452 0 0 4.49448 0 10.0387C0 15.5829 4.49452 20.0774 10.0388 20.0774Z" fill="#3A4042"/>
<path d="M18.462 8.87547C15.7177 8.87547 14.496 12.0661 14.4584 12.1656C14.3702 12.4376 13.7657 14.3675 13.7657 15.9107C13.7657 18.8272 11.3466 20.5147 8.41191 20.5147C5.45291 20.5147 3.05567 18.8017 3.05567 15.844C3.05567 15.844 3.05567 14.2098 3.25461 12.7589C2.78267 12.225 2.7135 11.3698 2.7135 11.3698C2.7135 11.3698 2.5147 11.4086 2.33277 11.5601C2.3103 11.5789 2.27586 11.5608 2.27929 11.5317C2.33305 11.0753 2.79527 10.1068 3.7108 9.96733C3.87097 9.31948 4.17421 8.63404 4.24337 8.50426C5.17144 6.77428 6.99608 5.5987 9.09616 5.5987C9.86652 5.5987 10.5993 5.75641 11.2653 6.04271C13.1167 6.04271 14.0108 5.06005 14.0108 5.06005C14.4264 5.06005 14.9274 6.14764 14.6953 6.55287C14.6896 6.56281 14.7022 6.57436 14.7119 6.5682C15.4831 6.07687 15.9179 4.86475 15.9179 4.86475C16.7986 5.30512 17.2609 7.28381 16.7877 7.75694C18.3079 7.99102 18.7168 8.87547 18.462 8.87547Z" fill="#FFFCEE"/>
<path d="M8.27926 20.5123C5.38144 20.4622 3.05546 18.7582 3.05546 15.8444C3.05546 15.8444 3.03117 15.4262 3.09956 14.4421C6.12954 13.9659 4.64021 18.3083 8.27926 20.5123Z" fill="#EAE6DA"/>
<path d="M18.5325 8.79782C18.5325 8.84633 18.5082 8.87545 18.4621 8.87545C18.4185 8.87545 18.376 8.87664 18.3324 8.8779C15.8975 8.95917 14.8178 11.3188 14.6346 11.7677C14.6334 11.7702 14.6321 11.7725 14.6309 11.775C14.5315 11.98 14.4757 12.122 14.4611 12.1584C14.5436 11.7945 14.5994 11.445 14.5994 11.1005C14.5994 9.96612 14.2561 8.91192 13.6677 8.03601C13.0793 7.16129 12.2471 6.46374 11.2668 6.04276C11.3142 6.04276 11.3615 6.04157 11.4088 6.04031C11.4379 6.04031 11.467 6.03912 11.4962 6.03667C11.5265 6.03667 11.5569 6.03422 11.5872 6.03303C11.6333 6.02939 11.6769 6.02575 11.7206 6.02211C11.7473 6.01966 11.774 6.01728 11.8007 6.01364C11.9802 5.99544 12.1489 5.96632 12.3066 5.93111C12.3345 5.92383 12.3624 5.91774 12.3891 5.91046C12.4182 5.90437 12.4473 5.89709 12.4765 5.88862C12.5092 5.88015 12.542 5.87161 12.5735 5.86195C12.6244 5.8462 12.6754 5.83038 12.7239 5.81463C12.7628 5.80126 12.8015 5.78796 12.8379 5.7734C12.8755 5.76003 12.9132 5.74673 12.9483 5.73091C12.9847 5.71754 13.0187 5.70298 13.0526 5.68723C13.1193 5.65811 13.1837 5.6278 13.2443 5.59749C13.3207 5.55864 13.3911 5.51986 13.4566 5.48101C13.5645 5.41794 13.6555 5.35606 13.7308 5.30027C13.8218 5.2323 13.891 5.17413 13.937 5.13164C13.9382 5.13045 13.9382 5.13045 13.9395 5.12919C13.9856 5.09034 14.0523 5.0916 14.0984 5.13038C14.3277 5.32932 14.9209 5.91893 14.6989 6.54494C14.6977 6.54739 14.6965 6.54977 14.6953 6.55222C14.6928 6.55831 14.6953 6.56314 14.6989 6.56559C14.7025 6.56923 14.7086 6.57168 14.7135 6.56804C14.7365 6.55348 14.7583 6.53892 14.7814 6.52191C14.8324 6.48551 14.8834 6.44666 14.9307 6.40424C14.9489 6.38849 14.9671 6.37148 14.9853 6.35447C15.0144 6.3278 15.0435 6.29868 15.0715 6.26956C15.0848 6.25619 15.0981 6.24289 15.1103 6.22833C15.1128 6.22588 15.1151 6.2235 15.1176 6.22105C15.1261 6.21258 15.1333 6.20404 15.1406 6.19557C15.1491 6.18584 15.1576 6.17737 15.1649 6.1689C15.1674 6.16645 15.1685 6.16407 15.1697 6.16281C15.1831 6.14825 15.1952 6.13369 15.2061 6.11913C15.2134 6.11066 15.2207 6.10338 15.2268 6.09484C15.2486 6.06817 15.2705 6.04024 15.2911 6.01357C15.3032 5.99782 15.3154 5.982 15.3263 5.96625C15.33 5.96261 15.3324 5.95897 15.3336 5.95533C15.3336 5.95533 15.3361 5.95414 15.3361 5.95288C15.3482 5.93713 15.3603 5.92131 15.37 5.90556C15.3834 5.88736 15.3967 5.86916 15.4076 5.85096C15.4137 5.84487 15.4173 5.83759 15.421 5.83157C15.4258 5.82548 15.4294 5.81946 15.4331 5.81337C15.4428 5.8 15.4513 5.7867 15.4597 5.77333C15.4779 5.7454 15.4961 5.71628 15.5132 5.68842C15.5143 5.68723 15.5156 5.68597 15.5156 5.68478C15.5338 5.65685 15.5496 5.62899 15.5654 5.60106C15.569 5.59623 15.5715 5.59133 15.5738 5.5865C15.5981 5.54646 15.62 5.50642 15.6406 5.46757C15.649 5.45301 15.6563 5.43964 15.6636 5.42634C15.6781 5.39967 15.6915 5.37174 15.7048 5.34626C15.7157 5.32561 15.7255 5.30503 15.7364 5.28557C15.7364 5.28438 15.7364 5.28312 15.7376 5.28193C15.7388 5.2771 15.7412 5.2722 15.7437 5.26856C15.757 5.24308 15.7691 5.2176 15.7801 5.19331C15.7885 5.17511 15.7971 5.15691 15.8044 5.1399C15.8092 5.13017 15.8128 5.1217 15.8165 5.11323C15.8189 5.1084 15.8213 5.1035 15.8237 5.09867C15.8322 5.07802 15.8408 5.05982 15.848 5.04162C15.8505 5.03553 15.8529 5.0307 15.8565 5.02461C15.899 4.95664 15.9948 4.94698 16.0494 5.01005C16.2302 5.21753 16.5602 5.62514 16.7956 6.08616C16.8017 6.10072 16.8053 6.11528 16.8113 6.12984C17.02 6.77041 17.0455 7.4534 16.8113 7.73123C16.804 7.7397 16.7968 7.74824 16.7883 7.75671C16.8829 7.77127 16.9739 7.78828 17.06 7.80767C17.0964 7.81614 17.1316 7.82468 17.1668 7.83315C17.185 7.83798 17.2032 7.84288 17.2202 7.84771C17.2541 7.85618 17.2869 7.86591 17.3185 7.87564C17.7249 7.99814 18.0185 8.16922 18.215 8.3354C18.2321 8.34996 18.2478 8.36452 18.2636 8.37908C18.266 8.38027 18.2684 8.38153 18.2696 8.38391C18.2854 8.39847 18.3 8.41303 18.3145 8.42759C18.3291 8.44215 18.3436 8.45671 18.357 8.47246C18.3704 8.48702 18.3837 8.50158 18.3946 8.51614C18.4152 8.54043 18.4334 8.56465 18.4492 8.58775C18.4965 8.65929 18.5232 8.72243 18.5305 8.77094C18.5313 8.78081 18.5325 8.78928 18.5325 8.79782Z" fill="#F25A70"/>
<path d="M3.93667 9.95105C2.87133 9.95105 2.33597 11.0395 2.27899 11.5322C2.27556 11.5617 2.30965 11.5795 2.33247 11.5606C2.51503 11.4091 2.71404 11.3694 2.71404 11.3694C2.71404 11.3694 2.86076 13.1789 4.18126 13.1789C5.79512 13.1789 5.6484 9.95105 3.93667 9.95105Z" fill="#828282"/>
<path d="M9.38894 18.1796C10.1853 18.3185 11.6884 18.4362 12.1041 18.0205C12.3731 17.7515 11.4899 16.5517 10.6613 15.7478C10.4536 15.5356 10.0749 15.3795 9.70765 15.3795C8.92413 15.3795 8.28937 16.0143 8.28937 16.7978C8.28944 17.4972 8.72337 18.0632 9.38894 18.1796Z" fill="#F4F1E4"/>
<path d="M17.5159 7.42986C17.6999 6.6943 17.3238 5.7374 16.4153 4.69153C16.3001 4.55888 16.1334 4.48279 15.9582 4.48279C15.7156 4.48279 15.4969 4.62685 15.401 4.8498C15.3487 4.97146 15.2221 5.2474 15.04 5.526C14.8558 5.17817 14.5833 4.90937 14.4149 4.76377C14.3043 4.66815 14.1632 4.61551 14.0175 4.61551C13.8665 4.61551 13.7218 4.67158 13.6101 4.77343C13.413 4.95305 12.6783 5.52971 11.3608 5.55652C10.6427 5.26245 9.88133 5.11349 9.09627 5.11349C6.88537 5.11349 4.862 6.32491 3.81591 8.2749C3.74913 8.40027 3.49699 8.96216 3.31779 9.56556C2.39945 9.87643 1.87185 10.8438 1.79744 11.4747C1.78015 11.6213 1.82642 11.7686 1.92435 11.8788C2.0227 11.9895 2.16404 12.0529 2.31216 12.0529C2.3263 12.0529 2.34044 12.0524 2.35444 12.0512C2.43116 12.3151 2.55345 12.622 2.74721 12.8976C2.57256 14.3063 2.57046 15.7791 2.57046 15.844C2.57046 17.4024 3.17401 18.7231 4.31579 19.6631C5.36286 20.5252 6.81754 21 8.41195 21C11.8499 21 14.2511 18.9072 14.2511 15.9107C14.2511 14.4464 14.8321 12.5886 14.9163 12.3271C15.0021 12.1053 16.1121 9.36074 18.462 9.36074C18.7553 9.36074 18.9935 9.13905 19.0159 8.84505C19.0534 8.35708 18.5001 7.74556 17.5159 7.42986ZM12.0755 19.1652C11.1451 19.9181 9.84388 20.3328 8.41167 20.3328C4.83799 20.3328 3.23834 18.0785 3.23834 15.8443C3.23834 15.8293 3.24051 14.4484 3.39367 13.1187C3.60724 13.2672 3.86652 13.3608 4.18125 13.3608C4.59698 13.3608 4.94257 13.1771 5.18079 12.8297C5.38169 12.5364 5.49236 12.1377 5.49236 11.7069C5.49236 10.7728 4.95279 9.78116 3.95318 9.7701C4.1146 9.2199 4.34722 8.69728 4.4042 8.59032C5.33395 6.85733 7.13191 5.78073 9.09662 5.78073C9.82575 5.78073 10.5314 5.92514 11.194 6.20997C12.137 6.61499 12.9399 7.28153 13.5156 8.13749C14.1049 9.01487 14.4164 10.0394 14.4164 11.1005C14.4164 11.6673 14.2589 12.2463 14.0765 12.9167C13.846 13.7643 13.5846 14.725 13.5846 15.9108C13.5846 17.241 13.0628 18.3663 12.0755 19.1652ZM4.66936 11.7035C3.68886 10.8456 2.79838 11.141 2.65894 11.1952C2.6364 11.2007 2.5979 11.2111 2.54827 11.2296C2.72516 10.7742 3.16582 10.1329 3.9368 10.1329C4.71913 10.1329 5.12849 10.9247 5.12849 11.7068C5.12849 12.0649 5.04043 12.3905 4.88062 12.6237C4.71101 12.8712 4.47574 12.9967 4.18132 12.9967C3.71441 12.9967 3.35811 12.7312 3.1222 12.2076C2.9997 11.9356 2.94111 11.6598 2.91479 11.498C3.16792 11.4402 3.76334 11.3942 4.42975 11.9773C4.46426 12.0076 4.50703 12.0223 4.54952 12.0223C4.6002 12.0223 4.6506 12.0013 4.68651 11.9602C4.75266 11.8847 4.74496 11.7697 4.66936 11.7035ZM13.937 5.13204C13.9598 5.11118 13.9885 5.10082 14.0174 5.10082C14.0458 5.10082 14.0743 5.1109 14.0975 5.13092C14.3001 5.30613 14.7845 5.78493 14.7444 6.32477C14.5418 6.48437 14.3128 6.59021 14.0604 6.59021C13.9599 6.59021 13.8784 6.67169 13.8784 6.77221C13.8784 6.87273 13.9599 6.95421 14.0604 6.95421C15.1104 6.95421 15.7784 5.65956 16.0049 5.13778C16.3871 5.45138 16.6679 6.11967 16.7602 6.68793C16.8222 7.07027 16.7999 7.39948 16.7056 7.5658C16.4977 7.53717 16.2706 7.51946 16.0167 7.51946C15.9162 7.51946 15.8347 7.60094 15.8347 7.70146C15.8347 7.80198 15.9162 7.88346 16.0167 7.88346C17.4233 7.88346 17.9753 8.40342 18.1764 8.70337C16.3525 8.83406 15.2804 10.2052 14.7799 11.0721C14.7744 9.94867 14.4423 8.8643 13.8177 7.93456C13.2687 7.11843 12.5255 6.46505 11.6559 6.02615C12.9579 5.92423 13.7102 5.33868 13.937 5.13204Z" fill="#3A4042"/>
<path d="M7.3871 12.9249C7.88539 12.9249 8.28934 12.521 8.28934 12.0227C8.28934 11.5244 7.88539 11.1205 7.3871 11.1205C6.88881 11.1205 6.48486 11.5244 6.48486 12.0227C6.48486 12.521 6.88881 12.9249 7.3871 12.9249Z" fill="#3A4042"/>
<path d="M10.8356 18.4923C10.1566 18.4923 9.48469 18.3811 9.35763 18.3589H9.35756C8.60982 18.2281 8.10742 17.6008 8.10742 16.7979C8.10742 15.9155 8.82528 15.1976 9.70771 15.1976C10.1146 15.1976 10.54 15.3637 10.7915 15.6206C11.3842 16.1955 12.3312 17.3196 12.3354 17.8748C12.3364 18.0158 12.2802 18.1019 12.2328 18.1492C11.9661 18.4159 11.3984 18.4923 10.8356 18.4923ZM9.42021 18.0004C10.4442 18.1791 11.68 18.1873 11.9755 17.8919C12.0364 17.718 11.4507 16.7672 10.5348 15.8785C10.3507 15.6906 10.012 15.5616 9.70778 15.5616C9.02604 15.5616 8.4715 16.1162 8.4715 16.798C8.47136 17.4179 8.85272 17.9011 9.42021 18.0004Z" fill="#3A4042"/>
<path d="M24.3892 10.6939C24.3892 5.69844 28.0995 1.86707 33.2162 1.86707C36.2959 1.86707 39.0119 3.39482 40.4913 5.79554L37.1448 7.73551C36.393 6.42595 34.938 5.65 33.2162 5.65C30.2092 5.65 28.2692 7.66285 28.2692 10.694C28.2692 13.7253 30.2092 15.738 33.2162 15.738C34.938 15.738 36.4172 14.962 37.1448 13.6526L40.4913 15.5926C39.0362 17.9933 36.3202 19.5211 33.2162 19.5211C28.0995 19.5209 24.3892 15.6894 24.3892 10.6939Z" fill="#3A4042"/>
<path d="M41.7036 13.119C41.7036 9.50577 44.5651 6.71704 48.1298 6.71704C51.6945 6.71704 54.5561 9.5057 54.5561 13.119C54.5561 16.7324 51.6945 19.521 48.1298 19.521C44.5651 19.521 41.7036 16.7324 41.7036 13.119ZM50.9185 13.119C50.9185 11.3972 49.706 10.2575 48.1298 10.2575C46.5536 10.2575 45.3411 11.3972 45.3411 13.119C45.3411 14.8408 46.5536 15.9806 48.1298 15.9806C49.706 15.9806 50.9185 14.8408 50.9185 13.119Z" fill="#3A4042"/>
<path d="M56.6168 1.47913H60.2543V19.1815H56.6168V1.47913Z" fill="#3A4042"/>
<path d="M62.9215 1.47913H66.5591V19.1815H62.9215V1.47913Z" fill="#3A4042"/>
<path d="M81.6665 7.05661V19.1815H78.0289V18.0417C77.2287 18.9631 76.0405 19.521 74.4158 19.521C71.2389 19.521 68.62 16.7324 68.62 13.119C68.62 9.5057 71.2389 6.71704 74.4158 6.71704C76.0405 6.71704 77.2288 7.2748 78.0289 8.19621V7.05661H81.6665ZM78.029 13.119C78.029 11.3002 76.8165 10.1606 75.1432 10.1606C73.4701 10.1606 72.2576 11.3002 72.2576 13.119C72.2576 14.9377 73.4701 16.0775 75.1432 16.0775C76.8165 16.0775 78.029 14.9378 78.029 13.119Z" fill="#3A4042"/>
<path d="M97.3799 13.119C97.3799 16.7323 94.7609 19.521 91.5841 19.521C89.9594 19.521 88.7711 18.9631 87.9709 18.0417V19.1814H84.3334V2.20642H87.9709V8.19618C88.7712 7.27477 89.9594 6.71701 91.5841 6.71701C94.7609 6.71708 97.3799 9.50574 97.3799 13.119ZM93.7424 13.119C93.7424 11.3002 92.5299 10.1605 90.8566 10.1605C89.1834 10.1605 87.9709 11.3001 87.9709 13.119C87.9709 14.9377 89.1834 16.0775 90.8566 16.0775C92.5299 16.0775 93.7424 14.9377 93.7424 13.119Z" fill="#3A4042"/>
<path d="M102.143 18.8661L100.543 17.2656V8.72987L102.143 7.12939H104.471L106.072 8.72987V10.791H105.126V9.04501L104.035 7.95385H102.58L101.489 9.04501V16.9503L102.58 18.0416H104.035L105.126 16.9503V15.2044H106.072V17.2655L104.471 18.866H102.143V18.8661Z" fill="#3A4042"/>
<path d="M109.976 18.8661L108.375 17.2656V8.72987L109.976 7.12939H112.643L114.244 8.72987V17.2655L112.643 18.866H109.976V18.8661ZM110.412 18.0416H112.207L113.298 16.9503V9.04508L112.207 7.95392H110.412L109.321 9.04508V16.9503L110.412 18.0416Z" fill="#3A4042"/>
<path d="M118.269 18.8661L116.668 17.2656V8.72985L118.269 7.12937H120.088L121.615 8.65698V2.13403H122.561V18.866H121.688L121.64 17.314L120.088 18.866H118.269V18.8661ZM118.706 18.0416H119.797L121.615 16.2228V9.77257L119.797 7.9539H118.706L117.614 9.04506V16.9503L118.706 18.0416Z" fill="#3A4042"/>
<path d="M126.829 18.8661L125.229 17.2656V8.72987L126.829 7.12939H129.4L131 8.72987V13.1675H126.174V16.9503L127.266 18.0416H128.963L130.054 16.9503V15.4953H131V17.2655L129.4 18.866H126.829V18.8661ZM126.174 12.3431H130.054V9.04508L128.963 7.95392H127.265L126.174 9.04508V12.3431Z" fill="#3A4042"/>
</svg>
